<svg width="24" height="24" viewBox="0 0 24 24" fill="none" xmlns="http://www.w3.org/2000/svg">
<path d="M12 22.4035C6.29543 22.4035 1.65515 17.7632 1.65515 12.0587C1.65515 6.35414 6.29543 1.71387 12 1.71387C17.7045 1.71387 22.3448 6.35414 22.3448 12.0587C22.3448 17.7632 17.7045 22.4035 12 22.4035ZM12 3.36904C7.20825 3.36904 3.31032 7.26697 3.31032 12.0587C3.31032 16.8504 7.20825 20.7484 12 20.7484C16.7917 20.7484 20.6896 16.8496 20.6896 12.0587C20.6896 7.2678 16.7917 3.36904 12 3.36904Z" fill="black"/>
<path d="M11.9999 17.8518C11.7805 17.8518 11.57 17.7646 11.4148 17.6094C11.2596 17.4542 11.1724 17.2437 11.1724 17.0242V7.09321C11.1724 6.87372 11.2596 6.66322 11.4148 6.50802C11.57 6.35282 11.7805 6.26562 11.9999 6.26562C12.2194 6.26562 12.4299 6.35282 12.5851 6.50802C12.7403 6.66322 12.8275 6.87372 12.8275 7.09321V17.0242C12.8275 17.2437 12.7403 17.4542 12.5851 17.6094C12.4299 17.7646 12.2194 17.8518 11.9999 17.8518Z" fill="black"/>
<path d="M16.9655 12.8864H7.0345C6.81501 12.8864 6.60451 12.7992 6.4493 12.644C6.2941 12.4888 6.20691 12.2783 6.20691 12.0588C6.20691 11.8393 6.2941 11.6288 6.4493 11.4736C6.60451 11.3184 6.81501 11.2312 7.0345 11.2312H16.9655C17.185 11.2312 17.3955 11.3184 17.5507 11.4736C17.7059 11.6288 17.7931 11.8393 17.7931 12.0588C17.7931 12.2783 17.7059 12.4888 17.5507 12.644C17.3955 12.7992 17.185 12.8864 16.9655 12.8864Z" fill="black"/>
</svg>
