<svg width="30" height="30" viewBox="0 0 30 30" fill="none" xmlns="http://www.w3.org/2000/svg">
<path d="M16.9451 15.3882C17.7452 14.5732 18.387 13.5651 18.8269 12.4324C19.2667 11.2997 19.4944 10.0689 19.4943 8.82353C19.4943 6.48338 18.7044 4.23908 17.2983 2.58435C15.8922 0.929619 13.9851 0 11.9965 0C10.008 0 8.10087 0.929619 6.69476 2.58435C5.28864 4.23908 4.4987 6.48338 4.4987 8.82353C4.49868 10.0689 4.72633 11.2997 5.16619 12.4324C5.60605 13.5651 6.24782 14.5732 7.04796 15.3882C4.94877 16.5069 3.16778 18.3133 1.91791 20.5915C0.668049 22.8698 0.00220714 25.5235 0 28.2353C0 28.7033 0.157989 29.1522 0.439212 29.4831C0.720435 29.8141 1.10186 30 1.49957 30C1.89727 30 2.2787 29.8141 2.55992 29.4831C2.84114 29.1522 2.99913 28.7033 2.99913 28.2353C2.99913 25.4271 3.94707 22.734 5.63441 20.7483C7.32174 18.7626 9.61027 17.6471 11.9965 17.6471C14.3828 17.6471 16.6713 18.7626 18.3586 20.7483C20.046 22.734 20.9939 25.4271 20.9939 28.2353C20.9939 28.7033 21.1519 29.1522 21.4331 29.4831C21.7143 29.8141 22.0958 30 22.4935 30C22.8912 30 23.2726 29.8141 23.5538 29.4831C23.8351 29.1522 23.993 28.7033 23.993 28.2353C23.9908 25.5235 23.325 22.8698 22.0751 20.5915C20.8253 18.3133 19.0443 16.5069 16.9451 15.3882ZM11.9965 14.1176C11.1068 14.1176 10.237 13.8072 9.49718 13.2254C8.75737 12.6437 8.18077 11.8169 7.84027 10.8495C7.49977 9.88213 7.41068 8.81766 7.58427 7.7907C7.75785 6.76374 8.18631 5.82042 8.81546 5.08002C9.44462 4.33963 10.2462 3.83541 11.1189 3.63114C11.9915 3.42686 12.8961 3.5317 13.7181 3.9324C14.5401 4.3331 15.2427 5.01166 15.7371 5.88228C16.2314 6.75289 16.4952 7.77645 16.4952 8.82353C16.4952 10.2276 16.0212 11.5742 15.1776 12.567C14.3339 13.5599 13.1897 14.1176 11.9965 14.1176ZM28.3568 15L29.5564 13.6059C29.6962 13.4413 29.8072 13.246 29.8828 13.031C29.9585 12.816 29.9974 12.5856 29.9974 12.3529C29.9974 12.1202 29.9585 11.8898 29.8828 11.6749C29.8072 11.4599 29.6962 11.2645 29.5564 11.1C29.4166 10.9355 29.2506 10.8049 29.0679 10.7159C28.8853 10.6268 28.6895 10.581 28.4917 10.581C28.294 10.581 28.0982 10.6268 27.9155 10.7159C27.7329 10.8049 27.5669 10.9355 27.427 11.1L26.2424 12.5118L25.0577 11.1C24.9179 10.9355 24.7519 10.8049 24.5693 10.7159C24.3866 10.6268 24.1908 10.581 23.993 10.581C23.5937 10.581 23.2107 10.7677 22.9284 11.1C22.7885 11.2645 22.6776 11.4599 22.602 11.6749C22.5263 11.8898 22.4873 12.1202 22.4873 12.3529C22.4873 12.8229 22.646 13.2736 22.9284 13.6059L24.128 15L22.9284 16.3941C22.7878 16.5582 22.6762 16.7533 22.6001 16.9684C22.524 17.1834 22.4848 17.4141 22.4848 17.6471C22.4848 17.88 22.524 18.1107 22.6001 18.3257C22.6762 18.5408 22.7878 18.7359 22.9284 18.9C23.0678 19.0654 23.2336 19.1967 23.4163 19.2863C23.5991 19.3759 23.7951 19.422 23.993 19.422C24.191 19.422 24.387 19.3759 24.5697 19.2863C24.7525 19.1967 24.9183 19.0654 25.0577 18.9L26.2424 17.4882L27.427 18.9C27.5665 19.0654 27.7323 19.1967 27.915 19.2863C28.0978 19.3759 28.2938 19.422 28.4917 19.422C28.6897 19.422 28.8857 19.3759 29.0684 19.2863C29.2512 19.1967 29.417 19.0654 29.5564 18.9C29.697 18.7359 29.8085 18.5408 29.8847 18.3257C29.9608 18.1107 30 17.88 30 17.6471C30 17.4141 29.9608 17.1834 29.8847 16.9684C29.8085 16.7533 29.697 16.5582 29.5564 16.3941L28.3568 15Z" fill="#65ADAC"/>
</svg>
