<svg width="30" height="30" viewBox="0 0 30 30" fill="none" xmlns="http://www.w3.org/2000/svg">
<g clip-path="url(#clip0_217_404)">
<path d="M4.375 30H23.125C24.2871 29.9967 25.4005 29.5325 26.2207 28.7092C27.0409 27.8859 27.501 26.7709 27.5 25.6088V16.1875C27.5 15.856 27.3683 15.538 27.1339 15.3036C26.8995 15.0692 26.5815 14.9375 26.25 14.9375C25.9185 14.9375 25.6005 15.0692 25.3661 15.3036C25.1317 15.538 25 15.856 25 16.1875V25.6088C25.0017 26.108 24.8052 26.5876 24.4536 26.9422C24.1021 27.2967 23.6243 27.4974 23.125 27.5H4.375C3.87572 27.4974 3.39788 27.2967 3.04636 26.9422C2.69483 26.5876 2.49834 26.108 2.5 25.6088V6.89125C2.49834 6.39196 2.69483 5.91241 3.04636 5.55784C3.39788 5.20327 3.87572 5.00265 4.375 5H13.75C14.0815 5 14.3995 4.8683 14.6339 4.63388C14.8683 4.39946 15 4.08152 15 3.75C15 3.41848 14.8683 3.10054 14.6339 2.86612C14.3995 2.6317 14.0815 2.5 13.75 2.5H4.375C3.21288 2.50331 2.09955 2.96754 1.27932 3.79081C0.459102 4.61408 -0.000996364 5.72913 1.62014e-06 6.89125V25.6088C-0.000996364 26.7709 0.459102 27.8859 1.27932 28.7092C2.09955 29.5325 3.21288 29.9967 4.375 30Z" fill="#65ADAC"/>
<path d="M11.8189 13.18L10.8326 17.6975C10.788 17.9024 10.7956 18.1152 10.8548 18.3164C10.914 18.5176 11.0229 18.7007 11.1714 18.8487C11.3219 18.9931 11.505 19.099 11.7052 19.1576C11.9054 19.2161 12.1168 19.2255 12.3214 19.185L16.8289 18.1962C17.0629 18.1449 17.2772 18.0273 17.4464 17.8575L28.8389 6.465C29.1871 6.11677 29.4634 5.70334 29.6519 5.24833C29.8404 4.79332 29.9374 4.30563 29.9374 3.81312C29.9374 3.32061 29.8404 2.83293 29.6519 2.37791C29.4634 1.9229 29.1871 1.50948 28.8389 1.16125C28.1248 0.478918 27.1752 0.0981445 26.1876 0.0981445C25.2 0.0981445 24.2504 0.478918 23.5364 1.16125L12.1614 12.565C11.9906 12.733 11.8717 12.9464 11.8189 13.18ZM25.3039 2.93C25.5417 2.70217 25.8583 2.57499 26.1876 2.57499C26.5169 2.57499 26.8335 2.70217 27.0714 2.93C27.3026 3.16578 27.4321 3.48287 27.4321 3.81312C27.4321 4.14338 27.3026 4.46046 27.0714 4.69625L26.1876 5.58L24.4201 3.8125L25.3039 2.93ZM14.1789 14.0725L22.6464 5.58375L24.3964 7.3425L15.9251 15.8337L13.6814 16.3262L14.1789 14.0725Z" fill="#65ADAC"/>
</g>
<defs>
<clipPath id="clip0_217_404">
<rect width="30" height="30" fill="white"/>
</clipPath>
</defs>
</svg>
